# xmcd
#
# Track frame offsets: 
#        150
#        27048
#        50885
#        74281
#        97653
#        117849
#        134780
#        160428
#        182296
#        203155
#
# Disc length: 3051 seconds
#
# Revision: 1
# Processed by: cddbd v1.5.2PL0 Copyright (c) Steve Scherf et al.
# Submitted via: ExactAudioCopy v1.0b6
#
DISCID=870be90a
DTITLE=Tony Cook - Back to reality
DYEAR=2009
DGENRE=Funk
TTITLE0=Get to the point [ft Vernon Cheely]
TTITLE1=Later for dancing [ft Tavell]
TTITLE2=Video rock [ft Tavell]
TTITLE3=Heart breaker [ft Vanessa Jean]
TTITLE4=Cook on your mind [ft Dām Funk]
TTITLE5=Burn me up [ft Vernon Cheely]
TTITLE6=The weekend life [ft Tavell]
TTITLE7=The rap [ft Tavell and Kids]
TTITLE8=Mighty fine [ft Vanessa Jean]
TTITLE9=On the floor [ft Party People]
EXTD=
EXTT0=
EXTT1=
EXTT2=
EXTT3=
EXTT4=
EXTT5=
EXTT6=
EXTT7=
EXTT8=
EXTT9=
PLAYORDER=
